<svg width="24" height="24" viewBox="0 0 24 24" fill="none" xmlns="http://www.w3.org/2000/svg">
<path fill-rule="evenodd" clip-rule="evenodd" d="M18.5502 12.7501C18.5212 9.71517 21.0299 8.25246 21.1432 8.18314C19.7344 6.11788 17.5365 5.83516 16.7538 5.80212C14.8853 5.61451 13.1073 6.90365 12.1587 6.90365C11.2126 6.90365 9.74779 5.8307 8.19938 5.86121C6.16057 5.88956 4.28251 7.0448 3.23281 8.86845C1.11743 12.5414 2.69208 17.9811 4.75499 20.9609C5.76183 22.4159 6.96526 24.0573 8.54329 23.998C10.0655 23.9383 10.6386 23.0163 12.4745 23.0163C14.3118 23.0163 14.8278 23.998 16.4378 23.9677C18.0713 23.9383 19.1099 22.4816 20.1105 21.0206C21.2673 19.3283 21.7436 17.6901 21.7713 17.605C21.7361 17.5922 18.5833 16.3817 18.5502 12.7501Z" fill="black"/>
<path fill-rule="evenodd" clip-rule="evenodd" d="M15.5309 3.83329C16.3695 2.81686 16.9322 1.4064 16.778 0C15.571 0.0479535 14.1075 0.805728 13.2428 1.81899C12.4656 2.71815 11.7855 4.15396 11.9699 5.53092C13.3164 5.63562 14.6919 4.84777 15.5309 3.83329Z" fill="black"/>
</svg>
